#!OML:ASF F:\VICON\USERDATA\INSTALL\Justin_Nancy\Justin_Nancy.ASF
:FULLY-SPECIFIED
:DEGREES

35
root 0.888361 16.9685 -19.7452 2.78087 -7.9551 -6.04365
lowerback 4.7537 2.43222 4.8117
upperback -0.320347 3.61705 3.51907
thorax -2.92886 1.74985 0.680069
lowerneck -16.1516 -2.92754 -8.60918
upperneck 21.4635 -2.71625 3.83738
head 9.64213 -1.5356 2.4165
rclavicle -7.55382e-015 -4.21423e-014
rhumerus -21.7595 -2.26451 -79.703
rradius 41.1315
rwrist 0.620021
rhand -15.8009 12.0003
rfingers 7.12502
rthumb 10.3923 -17.7229
lclavicle -7.55382e-015 -4.21423e-014
lhumerus -40.6161 8.06334 84.604
lradius 25.1468
lwrist -9.72945
lhand -11.3084 28.1942
lfingers 7.12502
lthumb 14.7234 57.6513
rfemur 18.1013 7.03817 32.5058
rtibia 10.2324
rfoot -13.6302 -4.64557
rtoes -5.33929
lfemur -37.022 -7.37352 -6.96258
ltibia 19.063
lfoot -10.1117 15.3805
ltoes -9.78005
36
root 0.90332 16.9544 -19.4861 2.66499 -8.28962 -5.79437
lowerback 4.73009 2.46047 4.60915
upperback -0.249337 3.63658 3.4951
thorax -2.85223 1.76465 0.768881
lowerneck -16.2164 -2.81165 -8.7356
upperneck 21.4319 -2.51273 3.83415
head 9.6311 -1.45081 2.46275
rclavicle -3.68994e-014 -2.14687e-014
rhumerus -21.3359 -2.214 -79.6614
rradius 41.1603
rwrist 0.747672
rhand -15.9384 11.8402
rfingers 7.12502
rthumb 10.2596 -17.8895
lclavicle -3.68994e-014 -2.14687e-014
lhumerus -41.0831 9.10009 84.0885
lradius 24.6448
lwrist -10.2412
lhand -11.7803 27.3684
lfingers 7.12502
lthumb 14.2688 56.8582
rfemur 18.4544 7.22312 32.018
rtibia 11.3501
rfoot -13.7387 -3.4218
rtoes -8.48306
lfemur -36.4104 -5.51997 -8.31919
ltibia 18.5909
lfoot -9.87894 13.7205
ltoes -13.114
37
root 0.91926 16.9335 -19.2198 2.49023 -8.60205 -5.73273
lowerback 4.79126 2.54126 4.61146
upperback -0.209218 3.74624 3.49668
thorax -2.84303 1.81955 0.760017
lowerneck -16.0027 -2.76962 -8.62083
upperneck 21.3283 -2.44065 3.57333
head 9.54578 -1.43747 2.36152
rclavicle -2.21148e-015 -1.74931e-014
rhumerus -21.1446 -2.31464 -79.5504
rradius 41.2851
rwrist 0.784506
rhand -16.199 11.9644
rfingers 7.12502
rthumb 10.0082 -17.7776
lclavicle -2.21148e-015 -1.74931e-014
lhumerus -41.5864 10.0892 83.523
lradius 24.04
lwrist -10.8012
lhand -12.1941 26.5148
lfingers 7.12502
lthumb 13.87 56.0323
rfemur 18.8529 7.40174 31.7499
rtibia 12.6138
rfoot -13.4782 -3.04119
rtoes -10.1199
lfemur -35.7361 -4.05313 -9.2609
ltibia 18.4634
lfoot -9.26081 12.2768
ltoes -11.2753
38
root 0.932941 16.9165 -18.9486 2.38465 -8.60897 -5.43095
lowerback 4.67796 2.6229 4.41685
upperback -0.210205 3.83233 3.3529
thorax -2.78115 1.86567 0.719482
lowerneck -15.9022 -2.80334 -8.35179
upperneck 21.3319 -2.5188 3.36739
head 9.52696 -1.47578 2.23508
rclavicle 4.44781e-015 -1.98785e-014
rhumerus -21.0402 -2.803 -79.454
rradius 41.3671
rwrist 0.829408
rhand -16.3271 12.0564
rfingers 7.12502
rthumb 9.88463 -17.6915
lclavicle 4.44781e-015 -1.98785e-014
lhumerus -41.9348 10.6483 82.9715
lradius 23.3673
lwrist -11.2687
lhand -11.8807 26.9058
lfingers 7.12502
lthumb 14.172 56.4024
rfemur 19.1945 7.43039 31.2654
rtibia 13.8647
rfoot -13.1353 -2.62754
rtoes -11.1307
lfemur -35.4263 -3.02874 -10.3293
ltibia 18.8876
lfoot -8.42844 11.0181
ltoes -7.39982
39
root 0.943736 16.9052 -18.6784 2.1989 -8.39236 -5.1249
lowerback 4.55741 2.58457 4.21636
upperback -0.148515 3.75494 3.20483
thorax -2.65334 1.83196 0.69066
lowerneck -15.7968 -2.80411 -8.13388
upperneck 21.2535 -2.56529 3.28097
head 9.47788 -1.48895 2.16263
rclavicle 1.02374e-014 3.18055e-015
rhumerus -20.674 -3.40955 -79.4301
rradius 41.1057
rwrist 0.78956
rhand -15.9903 12.3417
rfingers 7.12502
rthumb 10.2095 -17.3905
lclavicle 1.02374e-014 3.18055e-015
lhumerus -42.2243 11.4203 82.2344
lradius 22.6194
lwrist -11.9109
lhand -11.064 27.813
lfingers 7.12502
lthumb 14.9589 57.2527
rfemur 19.4818 7.293 30.8455
rtibia 15.28
rfoot -12.5105 -2.24086
rtoes -12.4792
lfemur -35.171 -2.5022 -11.2782
ltibia 19.7534
lfoot -7.78654 10.2301
ltoes -4.64126
